<svg xmlns="http://www.w3.org/2000/svg" width="80" height="80" viewBox="0 0 80 80">
  <g id="cookies_icon" transform="translate(-72 -1867)">
    <circle id="Ellipse_6" data-name="Ellipse 6" cx="40" cy="40" r="40" transform="translate(72 1867)" fill="#ffe5d3"/>
    <g id="cookie_1_" data-name="cookie (1)" transform="translate(92.001 1886.998)">
      <path id="Path_23" data-name="Path 23" d="M45.345,29.356a6.134,6.134,0,0,1-.892.065,6.262,6.262,0,0,1-5.96-4.345,1.235,1.235,0,0,0-.935-.847A10.013,10.013,0,0,1,31.1,8.841a.628.628,0,0,0-.4-.969A19.416,19.416,0,1,0,46.075,30.056.625.625,0,0,0,45.345,29.356Z" transform="translate(-6.918 -6.914)" fill="#f5b97d"/>
      <g id="Group_22" data-name="Group 22" transform="translate(8.728 11.24)">
        <circle id="Ellipse_1" data-name="Ellipse 1" cx="2.503" cy="2.503" r="2.503" fill="#cd916e"/>
        <circle id="Ellipse_2" data-name="Ellipse 2" cx="1.878" cy="1.878" r="1.878" transform="translate(1.877 13.142)" fill="#cd916e"/>
      </g>
      <g id="Group_23" data-name="Group 23" transform="translate(27.867 3.496)">
        <path id="Path_24" data-name="Path 24" d="M356.8,46.919,356.624,48a1.878,1.878,0,0,0,1.193,2.067l1.59.6a1.877,1.877,0,0,0,2.481-1.3l.567-2.266a1.878,1.878,0,0,0-2.361-2.254l-1.977.593A1.878,1.878,0,0,0,356.8,46.919Z" transform="translate(-356.598 -44.754)" fill="#f5b97d"/>
        <path id="Path_25" data-name="Path 25" d="M423.272,158.247l-.756.378a1.252,1.252,0,0,0-.591,1.613l.608,1.419a1.252,1.252,0,0,0,2.112.308l.978-1.174a1.252,1.252,0,0,0-.211-1.8l-.83-.623A1.252,1.252,0,0,0,423.272,158.247Z" transform="translate(-416.732 -149.265)" fill="#f5b97d"/>
        <circle id="Ellipse_3" data-name="Ellipse 3" cx="1.252" cy="1.252" r="1.252" transform="translate(9.044 3.976)" fill="#f5b97d"/>
      </g>
      <g id="Group_24" data-name="Group 24" transform="translate(0.585 4.083)">
        <path id="Path_26" data-name="Path 26" d="M29.269,97.848A19.412,19.412,0,0,1,14.418,65.929,19.414,19.414,0,1,0,41.766,93.293,19.325,19.325,0,0,1,29.269,97.848Z" transform="translate(-7.504 -64.862)" fill="#e3aa75"/>
        <path id="Path_27" data-name="Path 27" d="M359.684,56.134a2.345,2.345,0,0,1-1.49-2.581l.214-1.284-.293.088a1.878,1.878,0,0,0-1.312,1.49l-.18,1.077a1.878,1.878,0,0,0,1.193,2.067l1.59.6a1.871,1.871,0,0,0,2.216-.726Z" transform="translate(-329.316 -52.269)" fill="#e3aa75"/>
        <path id="Path_28" data-name="Path 28" d="M423.87,163.316l-.689-1.607a1.406,1.406,0,0,1-.062-.919l-.6.3a1.252,1.252,0,0,0-.591,1.613l.608,1.419a1.252,1.252,0,0,0,2.112.308l.243-.292A1.4,1.4,0,0,1,423.87,163.316Z" transform="translate(-389.45 -152.31)" fill="#e3aa75"/>
      </g>
      <g id="Group_25" data-name="Group 25" transform="translate(8.728 11.438)">
        <path id="Path_29" data-name="Path 29" d="M115.546,149.785a2.5,2.5,0,0,1-2.306-3.479,2.5,2.5,0,1,0,3.282,3.282A2.5,2.5,0,0,1,115.546,149.785Z" transform="translate(-111.713 -146.306)" fill="#b67f5f"/>
        <path id="Path_30" data-name="Path 30" d="M138.616,316.722a1.875,1.875,0,0,1-1.722-2.622,1.877,1.877,0,1,0,2.467,2.467A1.869,1.869,0,0,1,138.616,316.722Z" transform="translate(-133.883 -301)" fill="#b67f5f"/>
      </g>
      <circle id="Ellipse_4" data-name="Ellipse 4" cx="2.503" cy="2.503" r="2.503" transform="translate(21.881 25.641)" fill="#cd916e"/>
      <path id="Path_31" data-name="Path 31" d="M283.883,334.154a2.5,2.5,0,0,1-2.306-3.479,2.5,2.5,0,1,0,3.282,3.282A2.5,2.5,0,0,1,283.883,334.154Z" transform="translate(-258.169 -304.837)" fill="#b67f5f"/>
      <circle id="Ellipse_5" data-name="Ellipse 5" cx="1.252" cy="1.252" r="1.252" transform="translate(18.096 15.619)" fill="#cd916e"/>
      <path id="Path_32" data-name="Path 32" d="M107.3,136.275a3.089,3.089,0,1,0,3.089,3.089A3.092,3.092,0,0,0,107.3,136.275Zm0,5.007a1.918,1.918,0,1,1,1.918-1.918A1.92,1.92,0,0,1,107.3,141.282Z" transform="translate(-96.071 -125.625)"/>
      <path id="Path_33" data-name="Path 33" d="M272.549,323.735a3.089,3.089,0,1,0,3.089-3.089A3.092,3.092,0,0,0,272.549,323.735Zm3.089-1.918a1.918,1.918,0,1,1-1.918,1.918A1.92,1.92,0,0,1,275.638,321.817Z" transform="translate(-251.254 -295.59)"/>
      <path id="Path_34" data-name="Path 34" d="M130.723,304.613a2.463,2.463,0,1,0,2.463,2.463A2.466,2.466,0,0,0,130.723,304.613Zm0,3.755a1.292,1.292,0,1,1,1.292-1.292A1.293,1.293,0,0,1,130.723,308.368Z" transform="translate(-118.239 -280.811)"/>
      <path id="Path_35" data-name="Path 35" d="M224.454,194.225a1.837,1.837,0,1,0,1.837-1.837A1.839,1.839,0,0,0,224.454,194.225Zm1.837-.666a.666.666,0,1,1-.666.666A.667.667,0,0,1,226.291,193.559Z" transform="translate(-206.918 -177.355)"/>
      <path id="Path_36" data-name="Path 36" d="M385.985,307.033a.586.586,0,0,0,.523-.848l-.626-1.252a.586.586,0,1,0-1.047.524l.626,1.252A.586.586,0,0,0,385.985,307.033Z" transform="translate(-354.712 -280.809)"/>
      <path id="Path_37" data-name="Path 37" d="M305.2,266.328a.583.583,0,0,0,.261-.062l1.252-.626a.586.586,0,1,0-.524-1.047l-1.252.626a.586.586,0,0,0,.262,1.109Z" transform="translate(-280.814 -243.862)"/>
      <path id="Path_38" data-name="Path 38" d="M80.85,242.581a.586.586,0,0,0,1.047-.524l-.626-1.252a.586.586,0,1,0-1.047.524Z" transform="translate(-73.9 -221.691)"/>
      <path id="Path_39" data-name="Path 39" d="M193.964,392.849l-1.252.626a.586.586,0,1,0,.524,1.047l1.252-.626a.586.586,0,0,0-.524-1.047Z" transform="translate(-177.358 -362.098)"/>
      <path id="Path_40" data-name="Path 40" d="M202.032,80.96l-.626-.626a.586.586,0,0,0-.828.828l.626.626a.585.585,0,1,0,.828-.828Z" transform="translate(-184.749 -73.897)"/>
      <path id="Path_41" data-name="Path 41" d="M184.545,264.7a.585.585,0,0,0,0,.828l.626.626a.586.586,0,0,0,.828-.828l-.626-.626A.585.585,0,0,0,184.545,264.7Z" transform="translate(-169.969 -243.863)"/>
      <path id="Path_42" data-name="Path 42" d="M280.566,433.456v.626a.586.586,0,1,0,1.171,0v-.626a.586.586,0,1,0-1.171,0Z" transform="translate(-258.647 -399.046)"/>
      <path id="Path_43" data-name="Path 43" d="M233.47,129.886l.626-.626a.586.586,0,0,0-.828-.828l-.626.626a.586.586,0,1,0,.828.828Z" transform="translate(-214.308 -118.238)"/>
      <path id="Path_44" data-name="Path 44" d="M350.7,43.69l1.59.6a2.463,2.463,0,0,0,3.254-1.709l.567-2.266a2.463,2.463,0,0,0-3.1-2.957l-1.977.593a2.479,2.479,0,0,0-1.722,1.954l-.18,1.077A2.468,2.468,0,0,0,350.7,43.69Zm-.41-2.519.18-1.077a1.3,1.3,0,0,1,.9-1.025l1.977-.593a1.312,1.312,0,0,1,.377-.056,1.294,1.294,0,0,1,1.247,1.607l-.567,2.266a1.292,1.292,0,0,1-1.707.9l-1.59-.6A1.3,1.3,0,0,1,350.288,41.171Z" transform="translate(-321.818 -34.338)"/>
      <path id="Path_45" data-name="Path 45" d="M415.344,151.167a1.839,1.839,0,0,0-.867,2.367l.608,1.419a1.825,1.825,0,0,0,1.423,1.094,1.876,1.876,0,0,0,.27.02,1.823,1.823,0,0,0,1.406-.662l.978-1.174a1.837,1.837,0,0,0-.309-2.646l-.83-.623a1.827,1.827,0,0,0-1.924-.173Zm1.28.67a.662.662,0,0,1,.7.063l.831.623a.666.666,0,0,1,.112.959l-.978,1.174a.666.666,0,0,1-1.124-.164l-.608-1.419a.667.667,0,0,1,.314-.858l.756-.378Z" transform="translate(-381.954 -138.825)"/>
      <path id="Path_46" data-name="Path 46" d="M466.773,91.854a1.837,1.837,0,1,0-1.837-1.837A1.839,1.839,0,0,0,466.773,91.854Zm0-2.5a.666.666,0,1,1-.666.666A.667.667,0,0,1,466.773,89.351Z" transform="translate(-428.611 -81.289)"/>
      <path id="Path_47" data-name="Path 47" d="M116.353,21.847a5.575,5.575,0,0,1-.806.059,5.653,5.653,0,0,1-5.4-3.936,1.82,1.82,0,0,0-1.382-1.243,9.421,9.421,0,0,1-6.073-14.477,1.213,1.213,0,0,0-.777-1.868A20.137,20.137,0,0,0,95.842.119a19.761,19.761,0,0,0-11,4.867.586.586,0,1,0,.774.879A18.6,18.6,0,0,1,95.967,1.284a18.969,18.969,0,0,1,5.722.248.045.045,0,0,1,.037.027.041.041,0,0,1-.006.042,10.592,10.592,0,0,0,6.828,16.277.65.65,0,0,1,.486.45,6.821,6.821,0,0,0,6.513,4.749,6.745,6.745,0,0,0,.976-.072.06.06,0,0,1,.066.026,18.746,18.746,0,0,1-4.435,9.371.586.586,0,0,0,.88.773,19.917,19.917,0,0,0,4.711-9.956,1.169,1.169,0,0,0-.325-1.018A1.247,1.247,0,0,0,116.353,21.847Z" transform="translate(-78.011 0)"/>
      <path id="Path_48" data-name="Path 48" d="M32.4,112.166A18.8,18.8,0,0,1,5.864,85.63a.586.586,0,1,0-.879-.773,19.974,19.974,0,0,0,28.19,28.189.586.586,0,1,0-.774-.879Z" transform="translate(0 -78.019)"/>
    </g>
  </g>
</svg>
